<svg xmlns="http://www.w3.org/2000/svg" viewBox="0 0 512 512" role="img" aria-labelledby="title desc">
  <title id="title">OPS Gradient Logo</title>
  <desc id="desc">Gradient shield logo used for the OPS progressive web application</desc>
  <defs>
    <linearGradient id="ops-gradient" x1="20%" y1="10%" x2="80%" y2="90%">
      <stop offset="0%" stop-color="#00c4ff" />
      <stop offset="100%" stop-color="#ff3bdc" />
    </linearGradient>
    <radialGradient id="ops-highlight" cx="30%" cy="25%" r="60%">
      <stop offset="0%" stop-color="#ffffff" stop-opacity="0.9" />
      <stop offset="70%" stop-color="#ffffff" stop-opacity="0" />
    </radialGradient>
  </defs>
  <rect width="512" height="512" rx="112" fill="#13162a" />
  <g transform="translate(64 64)">
    <path d="M192 0c106 0 192 86 192 192s-86 192-192 192S0 298 0 192 86 0 192 0z" fill="url(#ops-gradient)" />
    <path d="M192 28c90 0 164 74 164 164s-74 164-164 164S28 282 28 192 102 28 192 28z" fill="url(#ops-highlight)" />
    <path d="M76 208c32 76 136 100 196 52 68-54 60-170-32-202-12-4-40-10-60-6-14 3-14 22 0 26 36 10 76 48 68 106-8 56-74 90-128 60-12-6-26 8-20 20z" fill="#f7f8ff" fill-opacity="0.85" />
    <circle cx="148" cy="140" r="28" fill="#ffffff" fill-opacity="0.85" />
    <circle cx="248" cy="220" r="24" fill="#ffffff" fill-opacity="0.7" />
    <circle cx="208" cy="96" r="20" fill="#ffffff" fill-opacity="0.6" />
  </g>
</svg>
